<?xml version="1.0" encoding="UTF-8"?>
<!DOCTYPE svg PUBLIC "-//W3C//DTD SVG 1.1//EN" "http://www.w3.org/Graphics/SVG/1.1/DTD/svg11.dtd">
<!-- Creator: CorelDRAW X7 -->
<svg xmlns="http://www.w3.org/2000/svg" xml:space="preserve" width="40mm" height="11.2mm" version="1.1" style="shape-rendering:geometricPrecision; text-rendering:geometricPrecision; image-rendering:optimizeQuality; fill-rule:evenodd; clip-rule:evenodd"
viewBox="0 0 4000 1120"
 xmlns:xlink="http://www.w3.org/1999/xlink">
 <defs>
  <style type="text/css">
   <![CDATA[
    .fil1 {fill:#2B2A29}
    .fil0 {fill:#2B2A29;fill-rule:nonzero}
   ]]>
  </style>
 </defs>
 <g id="Слой_x0020_1">
  <metadata id="CorelCorpID_0Corel-Layer"/>
  <g id="_2403850265984">
   <path class="fil0" d="M1355 689c-23,0 -44,-5 -63,-15 -19,-9 -33,-23 -44,-40 -11,-17 -16,-37 -16,-59 0,-21 5,-41 16,-58 11,-18 25,-31 44,-41 19,-9 40,-14 63,-14 23,0 44,5 61,14 18,10 30,24 38,42l-49 27c-12,-21 -28,-31 -50,-31 -17,0 -31,6 -42,17 -10,11 -16,25 -16,44 0,19 6,34 16,45 11,11 25,17 42,17 22,0 39,-11 50,-31l49 27c-8,18 -20,32 -38,41 -17,10 -38,15 -61,15l0 0zm238 0c-23,0 -44,-5 -62,-15 -19,-9 -33,-23 -44,-40 -10,-17 -15,-37 -15,-59 0,-21 5,-41 15,-58 11,-18 25,-31 44,-41 18,-9 39,-14 62,-14 23,0 44,5 63,14 18,10 32,23 43,41 10,17 16,37 16,58 0,22 -6,42 -16,59 -11,17 -25,31 -43,40 -19,10 -40,15 -63,15zm0 -52c17,0 30,-6 41,-17 10,-11 16,-26 16,-45 0,-18 -6,-33 -16,-44 -11,-11 -24,-17 -41,-17 -16,0 -30,6 -40,17 -11,11 -16,26 -16,44 0,19 5,34 16,45 10,11 24,17 40,17zm298 -175c27,0 49,8 66,25 17,16 25,40 25,72l0 127 -63 0 0 -117c0,-17 -4,-31 -12,-39 -7,-9 -19,-13 -33,-13 -17,0 -29,5 -39,15 -9,10 -14,25 -14,45l0 109 -64 0 0 -221 61 0 0 26c8,-9 19,-16 32,-22 12,-5 26,-7 41,-7l0 0zm292 213c-7,5 -14,8 -24,11 -9,2 -18,3 -29,3 -26,0 -46,-7 -60,-20 -15,-13 -22,-33 -22,-59l0 -91 -34 0 0 -49 34 0 0 -53 64 0 0 53 55 0 0 49 -55 0 0 90c0,9 3,17 7,22 5,4 12,7 20,7 11,0 20,-3 27,-8l17 45 0 0zm136 14c-24,0 -45,-5 -64,-15 -19,-9 -33,-23 -44,-40 -10,-17 -15,-37 -15,-59 0,-21 5,-41 15,-58 11,-18 25,-31 44,-41 19,-9 40,-14 64,-14 23,0 43,5 60,14 17,10 30,24 38,42l-49 27c-12,-21 -28,-31 -50,-31 -17,0 -31,6 -41,17 -11,11 -17,25 -17,44 0,19 6,34 17,45 10,11 24,17 41,17 22,0 38,-11 50,-31l49 27c-8,18 -21,32 -38,41 -17,10 -37,15 -60,15l0 0zm349 -113c0,1 -1,7 -2,17l-167 0c3,14 10,25 22,33 11,8 25,12 41,12 12,0 22,-2 31,-5 9,-4 17,-9 25,-17l34 37c-21,24 -51,36 -91,36 -25,0 -47,-5 -66,-15 -19,-9 -34,-23 -44,-40 -11,-17 -16,-37 -16,-59 0,-21 5,-40 15,-58 10,-18 24,-31 43,-41 18,-9 37,-14 60,-14 21,0 41,4 58,14 18,9 32,22 41,39 10,18 16,38 16,61l0 0zm-115 -66c-14,0 -26,4 -37,12 -9,9 -16,20 -18,34l109 0c-2,-14 -8,-25 -18,-34 -10,-8 -22,-12 -36,-12l0 0zm287 -48c21,0 39,4 57,14 16,9 29,23 39,39 10,18 14,37 14,60 0,23 -4,43 -14,60 -10,17 -23,30 -39,40 -18,9 -36,14 -57,14 -28,0 -50,-9 -66,-27l0 103 -64 0 0 -300 61 0 0 26c16,-20 39,-29 69,-29zm-10 175c15,0 30,-6 40,-17 11,-11 16,-26 16,-45 0,-18 -5,-33 -16,-44 -10,-11 -25,-17 -40,-17 -17,0 -30,6 -41,17 -10,11 -16,26 -16,44 0,19 6,34 16,45 11,11 24,17 41,17zm305 38c-6,5 -14,8 -23,11 -9,2 -18,3 -29,3 -26,0 -46,-7 -61,-20 -14,-13 -22,-33 -22,-59l0 -91 -33 0 0 -49 33 0 0 -53 65 0 0 53 55 0 0 49 -55 0 0 90c0,9 2,17 7,22 5,4 11,7 20,7 11,0 19,-3 26,-8l17 45 0 0zm98 -181c7,-11 18,-19 30,-24 14,-6 28,-8 46,-8l0 59c-7,-1 -13,-1 -15,-1 -19,0 -33,5 -43,15 -11,10 -16,26 -16,47l0 104 -64 0 0 -221 62 0 0 29 0 0zm201 -32c35,0 61,8 79,24 18,17 28,41 28,74l0 126 -60 0 0 -28c-12,21 -35,31 -68,31 -16,0 -31,-3 -44,-8 -12,-6 -22,-14 -29,-25 -6,-10 -9,-21 -9,-34 0,-21 8,-36 23,-49 16,-11 39,-17 72,-17l50 0c0,-14 -4,-25 -12,-32 -9,-7 -21,-11 -38,-11 -12,0 -24,2 -35,5 -12,4 -21,9 -29,15l-23 -44c12,-9 26,-16 44,-20 16,-5 33,-7 51,-7l0 0zm-5 184c12,0 21,-2 29,-8 9,-5 15,-12 18,-22l0 -23 -43 0c-27,0 -40,9 -40,26 0,9 4,15 10,19 6,6 15,8 26,8zm230 -152c8,-11 18,-19 32,-24 12,-6 27,-8 44,-8l0 59c-7,-1 -12,-1 -14,-1 -18,0 -33,5 -43,15 -10,10 -15,26 -15,47l0 104 -65 0 0 -221 61 0 0 29 0 0zm341 -29l-100 234c-10,26 -22,43 -37,54 -15,11 -33,16 -54,16 -11,0 -23,-2 -34,-5 -11,-4 -21,-9 -28,-16l24 -45c5,4 11,8 17,10 7,3 13,4 19,4 9,0 16,-2 21,-6 6,-5 11,-12 15,-21l1 -2 -95 -223 65 0 62 150 63 -150 61 0 0 0z"/>
   <g>
    <g>
     <path class="fil0" d="M1057 1120l-894 0 0 -94 894 0 47 47 -47 47zm47 -47l0 47 -47 0 47 -47zm0 -893l0 893 -94 0 0 -893 47 -48 47 48zm-47 -48l47 0 0 48 -47 -48zm-894 0l894 0 0 95 -894 0 -47 -47 47 -48 0 0zm-47 48l0 -48 47 0 -47 48zm0 893l0 -893 95 0 0 893 -48 47 -47 -47 0 0zm47 47l-47 0 0 -47 47 47z"/>
    </g>
    <polygon class="fil1" points="0,425 425,425 425,0 0,0 "/>
    <polygon class="fil1" points="529,425 954,425 954,0 529,0 "/>
    <polygon class="fil1" points="0,957 425,957 425,533 0,533 "/>
   </g>
  </g>
 </g>
</svg>
