<?xml version="1.0" encoding="UTF-8"?>
<!DOCTYPE svg PUBLIC "-//W3C//DTD SVG 1.1//EN" "http://www.w3.org/Graphics/SVG/1.1/DTD/svg11.dtd">
<!-- Creator: CorelDRAW X7 -->
<svg xmlns="http://www.w3.org/2000/svg" xml:space="preserve" width="10.4695mm" height="10.742mm" version="1.1" style="shape-rendering:geometricPrecision; text-rendering:geometricPrecision; image-rendering:optimizeQuality; fill-rule:evenodd; clip-rule:evenodd"
viewBox="0 0 1017 1044"
 xmlns:xlink="http://www.w3.org/1999/xlink">
 <defs>
  <style type="text/css">
   <![CDATA[
    .fil3 {fill:#5573D2}
    .fil2 {fill:#55CFAA}
    .fil1 {fill:#EF774A}
    .fil0 {fill:#FEFEFE;fill-rule:nonzero}
   ]]>
  </style>
 </defs>
 <g id="Слой_x0020_1">
  <metadata id="CorelCorpID_0Corel-Layer"/>
  <g>
   <path class="fil0" d="M972 1044l-826 0 0 -91 826 0 45 45 -45 46zm45 -46l0 46 -45 0 45 -46zm0 -826l0 826 -91 0 0 -826 46 -45 45 45zm-45 -45l45 0 0 45 -45 -45zm-826 0l826 0 0 91 -826 0 -46 -46 46 -45zm-46 45l0 -45 46 0 -46 45zm0 826l0 -826 91 0 0 826 -45 46 -46 -46zm46 46l-46 0 0 -46 46 46z"/>
  </g>
  <rect class="fil1" width="393" height="393"/>
  <rect class="fil2" x="490" width="393" height="393"/>
  <rect class="fil3" y="490" width="393" height="393"/>
 </g>
</svg>
