<?xml version="1.0" encoding="UTF-8"?>
<!DOCTYPE svg PUBLIC "-//W3C//DTD SVG 1.1//EN" "http://www.w3.org/Graphics/SVG/1.1/DTD/svg11.dtd">
<!-- Creator: CorelDRAW X7 -->
<svg xmlns="http://www.w3.org/2000/svg" xml:space="preserve" width="10.4642mm" height="10.7421mm" version="1.1" style="shape-rendering:geometricPrecision; text-rendering:geometricPrecision; image-rendering:optimizeQuality; fill-rule:evenodd; clip-rule:evenodd"
viewBox="0 0 1046 1074"
 xmlns:xlink="http://www.w3.org/1999/xlink">
 <defs>
  <style type="text/css">
   <![CDATA[
    .fil1 {fill:#2B2A29}
    .fil0 {fill:#2B2A29;fill-rule:nonzero}
   ]]>
  </style>
 </defs>
 <g id="Слой_x0020_1">
  <metadata id="CorelCorpID_0Corel-Layer"/>
  <g id="_1617200523552">
   <path class="fil0" d="M1000 1074l-850 0 0 -93 850 0 46 46 -46 47zm46 -47l0 47 -46 0 46 -47zm0 -850l0 850 -93 0 0 -850 47 -46 46 46zm-46 -46l46 0 0 46 -46 -46zm-850 0l850 0 0 93 -850 0 -47 -47 47 -46zm-47 46l0 -46 47 0 -47 46zm0 850l0 -850 94 0 0 850 -47 47 -47 -47zm47 47l-47 0 0 -47 47 47z"/>
  </g>
  <rect class="fil1" width="404" height="404"/>
  <rect class="fil1" x="504" width="404" height="404"/>
  <rect class="fil1" y="504" width="404" height="404"/>
 </g>
</svg>
